<svg xmlns="http://www.w3.org/2000/svg" version="1.1" xmlns:xlink="http://www.w3.org/1999/xlink" width="1000" height="1000"><g clip-path="url(#SvgjsClipPath1100)"><rect width="1000" height="1000" fill="#232323"></rect><g transform="matrix(0.4136419101983413,0,0,0.4136419101983413,100,343.87292920518706)"><svg xmlns="http://www.w3.org/2000/svg" version="1.1" xmlns:xlink="http://www.w3.org/1999/xlink" width="1934.04" height="754.89"><svg xmlns="http://www.w3.org/2000/svg" viewBox="0 0 1934.04 754.89"><defs><style>.cls-1{fill:#f04d27;}.cls-2{fill:#fff;}</style><clipPath id="SvgjsClipPath1100"><rect width="1000" height="1000" x="0" y="0" rx="350" ry="350"></rect></clipPath></defs><title>mdv-primary</title><g id="Layer_2" data-name="Layer 2"><g id="Layer_1-2" data-name="Layer 1"><path class="cls-1" d="M538.21,382.88a49.45,49.45,0,0,1-6.26-.05c-3.72-.51-4.85,1.47-5.45,4.68-3.21,17.15-6.55,34.28-9.84,51.41q-8.8,45.76-17.61,91.53Q488.23,587,477.52,643.58c-4.37,23-8.65,46-13,69.08-3.21,17.07-16.44,28.08-33.74,28.09-54.33,0-108.67-.06-163,.09-12.56,0-23-4-29.87-14.72a35.91,35.91,0,0,1-4.64-12.34c-4-20-7.64-40.16-11.46-60.24q-14.06-74-28.15-147.92-11.15-58.77-22.13-117.56c-1.06-5.67-2-6.06-12-4.57,1.2,6.81,2.34,13.62,3.62,20.41q16.13,85.25,32.28,170.5,10.66,56.6,21.13,113.24c.79,4.24,1.74,8.46,2.53,12.7,3.89,20.74-11.28,40.17-32.38,40.29-50.66.29-101.33.07-152,0-21,0-34.56-18.46-34.47-34.3.28-52.5,0-105,0-157.49,0-121.65.17-243.31-.22-365,0-15.29,15.28-34.52,34.26-34.4,89.16.57,178.32.21,267.49.22,4.8,0,9.79-.36,14.37.75,16.18,3.95,26.57,17.47,26.59,34.17,0,42.16-.08,84.32-.1,126.49q0,76,0,152v5.36h11.74V457.1q0-136,0-272c0-9.52,2.86-17.55,9.19-24.55a31.4,31.4,0,0,1,24.65-10.91q129.75.18,259.49.1c8,0,16.07-.31,23.85,1,13.33,2.28,24.49,15.67,25.08,29.29.47,11,.29,22,.3,33q.09,202.24.15,404.49c0,29.66,0,59.33-.21,89-.16,19.78-15,34.21-34.67,34.2H517.72c-8.93,0-17.7-.85-25.12-6.52-13.18-10.08-16-23.33-12.94-39.15,10.24-53.05,20-106.2,30-159.3q13.82-73.24,27.8-146.46C537.81,387.39,537.92,385.42,538.21,382.88Z"></path><path class="cls-2" d="M1461.3,515.46h12.17V508q0-235.22-.17-470.44c0-12.86,3.34-23.55,14.2-31.18,6.41-4.51,13.62-5.7,21.3-5.69q78,.11,156,0c13.67,0,27.34.28,41-.1,20.1-.55,34.74,15.59,34.7,34.61q-.17,78.48,0,157c0,47.65.33,95.31-.22,143-.12,10.5-3.14,21-5.17,31.43-9,46.32-18.24,92.61-27.21,138.94q-17.17,88.57-34.06,177.21c-2.07,10.77-3.8,21.61-6,32.34-3.31,15.79-15.39,25.5-31.77,25.52q-80.49.14-161,.09c-57.82,0-115.65-.21-173.48.18-18,.13-32.21-11.89-35.16-30.4-4.91-30.68-11.32-61.13-17.14-91.66q-9.29-48.71-18.66-97.4-9.33-48.47-18.72-96.9c-5.61-29-11.32-58.05-16.79-87.12-.66-3.53-.07-7.3-.06-11,.07-45.82.23-91.65.16-137.47,0-11.24,2-21.47,10.41-29.65,6.52-6.3,14.09-9.69,23.28-9.68q100,.06,200,0c15.61,0,30.94,14,31.73,30.23.84,17.46.45,35,.45,52.46q0,139.47,0,278.92C1460.94,512.56,1461.15,513.85,1461.3,515.46Z"></path><path class="cls-2" d="M722,445.3c0-84.8.36-169.61-.22-254.42-.17-26.06,12.84-35.49,33.46-38,28.22-3.44,56.39-7.38,84.69-10,29-2.71,58.08-4.29,87.14-6,13.46-.81,27-1.43,40.43-1,41.28,1.18,82.39,4,122.49,15,22.64,6.21,42.88,17,61.18,31.57,3.89,3.09,7.21,6.9,11.15,9.91,10.63,8.13,13.44,18.62,13.14,31.85-.84,36.62-1,73.29,0,109.89.46,15.46,4.52,30.85,7.42,46.18,5.7,30.2,11.8,60.32,17.6,90.51,5.08,26.42,9.82,52.9,15,79.3,2.11,10.7-.64,20.87-2.39,31.12a268.25,268.25,0,0,1-17.49,60.14c-12,28.24-29.36,52.18-53.85,71.17-26.34,20.42-56.54,30.38-88.8,35.41-22.86,3.56-45.77,6.6-69,6.22-11.29-.18-22.63,1.23-33.89.69q-47.86-2.29-95.68-5.71c-20.24-1.49-40.42-3.9-60.59-6.21-14.71-1.69-29.39-3.62-44-5.94-10.59-1.68-18.18-7.63-23.72-17.12-3.26-5.59-3.84-11.07-3.84-17q0-128.72,0-257.44ZM976.17,558.18V342.33H965V558.18Z"></path><path class="cls-1" d="M1853.87,202.77c0-8.62,0-17.07,0-25.52.07-14.16.06-28.31.35-42.46.21-10.16,4.8-18.57,13.11-24a35.18,35.18,0,0,1,16.59-5.56c15.11-.78,30.29-.25,45.45-.39,3.35,0,4.67,1,4.66,4.53-.11,25.46.08,50.93-.07,76.39-.06,11.34-4.83,16.8-16.23,17.18-19.78.65-39.6.44-59.41.54A30.79,30.79,0,0,1,1853.87,202.77Z"></path><path class="cls-1" d="M1764.69,105c17,0,33.53-.64,50,.17,17.84.87,28.92,13.06,29.14,31,.25,21.14,0,42.28,0,63.42,0,1-.18,2-.35,3.8h-10.83c-16.81,0-33.61,0-50.42,0-12,0-17.91-5.74-17.92-17.57,0-25.46.06-50.92.13-76.39C1764.42,108.13,1764.57,106.83,1764.69,105Z"></path><path class="cls-1" d="M1933.94,96c-9.3,0-17.91,0-26.52,0-7,0-14-.4-21,0a29.64,29.64,0,0,1-32-28.12c-.73-22.07-.19-44.18-.19-66.6a23,23,0,0,1,3.24-.47c20.47-.05,40.94-.14,61.41-.06,8.3,0,14.9,5.85,15,13.56C1934,41.32,1933.94,68.27,1933.94,96Z"></path><path class="cls-1" d="M1764.4,96c0-23.24,0-45.7,0-68.17q0-6,0-12c.07-8.31,5.86-14.79,14.17-14.89,20.49-.25,41-.07,61.47-.18,3.21,0,4,1.42,4,4.23-.15,21,.08,41.94-.42,62.9-.36,14.91-14.27,28-29.19,28.07C1798,96.12,1781.5,96,1764.4,96Z"></path><path class="cls-1" d="M40.85,101.63H23.22V9c4.24,0,8.71-.4,13,.22,1.57.22,3.07,2.73,4.12,4.48,10.53,17.54,21,35.14,31.42,52.71.49.81,1.11,1.53,1.79,2.46C81.35,55.69,88.85,42.82,96.48,30c3.57-6,7.2-12,11.15-17.73a8.25,8.25,0,0,1,5.08-3.09c3.39-.49,6.9-.14,10.67-.14V101.5H106.49V45l-.84-.37c-3,4.84-6.1,9.62-9,14.52-5.48,9.32-10.78,18.75-16.26,28.07-4.12,7-9.68,6.93-13.78,0-8-13.45-16-26.84-24.08-40.25a22.25,22.25,0,0,0-1.7-2.1Z"></path><path class="cls-2" d="M578.93,75.58v26H560.57V9.68a15.24,15.24,0,0,1,2.73-.46c14.64.15,29.29.06,43.92.59,16.77.61,30,12.59,31.51,27.81,1.76,18.12-7.81,32.29-25.68,35.94-9,1.84-18.49,1.44-27.77,2C583.47,75.68,581.65,75.58,578.93,75.58Zm.55-50.64V60c9.63-.42,18.78-.29,27.78-1.38s13.67-8.26,13.31-18.12c-.29-7.82-6.83-15.08-14.86-15.5C597.1,24.6,588.45,24.94,579.48,24.94Z"></path><path class="cls-2" d="M312.78,37.11V4.31h17.44v97.16H313.66c-.18-2.15-.34-4.07-.56-6.79-9.19,7.91-19.33,9.53-30.25,6.94a34.14,34.14,0,0,1-19.64-12.86c-10.24-13.3-9.73-33.51,1.27-46.71C276,28.24,291.84,26.47,312.78,37.11Zm.75,29c.05-12.48-8.93-22.18-20.32-22-11.95.23-20.15,9.19-20.13,22,0,12.68,8.55,21.24,21.24,21.35C305.48,87.63,313.48,78.71,313.53,66.12Z"></path><path class="cls-2" d="M888,37V3.82c5.36,0,10.49-.3,15.52.25,1,.11,2.31,3.51,2.32,5.39.1,23.83,0,47.65-.05,71.48,0,6.78,0,13.55,0,20.54H888.89c-.17-2.06-.33-4.09-.51-6.19-19,10.88-36.07,9-48.37-4.44-10-10.89-12.65-34-.68-48.38C850.81,28.71,867.2,26.37,888,37Zm-39.5,28c-.09,14.2,7.46,22.4,20.77,22.54,11.13.12,19.48-9.5,19.51-22.48,0-11.65-9.26-21.35-20.9-20.85C856,44.73,847.85,53.17,848.49,65Z"></path><path class="cls-2" d="M992.44,30.33c5.34,0,10.13-.19,14.89.14,1.08.07,2.94,1.89,2.94,2.92.17,22.61.13,45.23.13,68.12H992.8c-.11-2.41-.2-4.62-.34-7.67-6.71,5.8-13.59,9.21-22.1,9-17.8-.5-29.23-11.25-29.68-29-.36-14.15-.07-28.31-.07-43.59,5,0,10.15-.24,15.18.2,1,.09,2.47,2.77,2.5,4.28.23,11.83,0,23.67.25,35.49.15,6.77,2.05,12.86,9.29,15.66C978.51,90,990,83.79,991.44,72.3c1.1-8.88.77-17.95,1-26.94C992.53,40.57,992.44,35.78,992.44,30.33Z"></path><path class="cls-2" d="M230.65,66.57c-.05,20.72-16.86,36.32-39,36.17-20.56-.14-37.11-16.6-36.93-36.71.2-20.78,16.59-36.43,38.09-36.37C214,29.73,230.7,46,230.65,66.57Zm-17.83.16c.47-12.17-8.47-22.14-20.3-22.66-11-.48-20.24,8.93-20.8,21.14-.57,12.57,8,21.69,21,22.25C203.8,87.93,212.35,79.13,212.82,66.73Z"></path><path class="cls-2" d="M1329.86,66.39c-.41,21.81-16.54,36.91-38.9,36.41-21-.47-36.33-16.78-35.85-38,.46-20.37,17.2-35.55,38.75-35.15C1314.56,30,1330.25,46,1329.86,66.39Zm-17.39-.07c.16-12.68-7.93-21.63-19.65-21.76-12.4-.13-20.23,8.3-20.39,22-.15,12.35,7.79,21,19.51,21.25C1303.87,88,1312.31,79.21,1312.47,66.32Z"></path><path class="cls-2" d="M1428.4,101.65h-16.69c-.08-2-.24-3.92-.24-5.83,0-11,.11-22-.08-33-.2-11.53-6.22-18.06-16.21-18a18.6,18.6,0,0,0-18.37,18.57c-.21,12.49,0,25,0,37.92H1359V80.1c0-15,.08-30-.08-45,0-3.9,1.34-5.51,5.2-5.09,1.65.17,3.32.17,5,.2,7,.16,7,.15,7.59,8,1.59-1.12,2.81-2.06,4.09-2.88,10.41-6.63,21.28-8.35,32.55-2.45,10.64,5.57,15.28,14.95,15.46,26.6.21,13,.08,26,.05,39A22.13,22.13,0,0,1,1428.4,101.65Z"></path><path class="cls-2" d="M732.41,65.65c.35-21,17-36.42,38.84-36,19.88.39,36.82,17.36,36.58,36.63-.27,20.85-17.22,36.85-38.65,36.46C748.19,102.38,732.07,86.11,732.41,65.65Zm58.09.11c.43-11.38-8.83-21.92-20.15-21.75-11.07.16-20.16,6.25-20.82,21.3-.59,13.33,7.32,21.85,20.52,22.33C781.15,88,790,78.54,790.5,65.76Z"></path><path class="cls-2" d="M1095.62,54c-12.61-11-23.82-12-32.38-3.23-8,8.28-7.78,23.12.57,31.74,7.9,8.14,19.54,6.82,31.59-3.84,1.75.94,3.63,1.94,5.5,3,7.42,4,7.56,4.9,1.81,10.93-10.24,10.74-26.9,13.23-42.57,6.38C1047.89,93.54,1039,78.37,1040,64.27c1.12-15.42,8.9-26.28,23.3-31.88,15-5.84,28.75-3.41,40.54,7.85,5.27,5,4.93,6.47-1.5,9.81C1100.11,51.2,1098,52.55,1095.62,54Z"></path><path class="cls-2" d="M407.39,30.6a16.79,16.79,0,0,1,2-.4c14.25-.53,14.34-.56,20.05,12.35,4.78,10.78,9.32,21.67,14,32.51.69,1.61,1.54,3.16,2.82,5.78,3.06-6.9,5.74-12.74,8.26-18.65,4.17-9.78,8.21-19.62,12.41-29.38.45-1.05,1.61-2.47,2.5-2.52,4.75-.25,9.52-.11,15.17-.11-1.59,4.34-2.66,7.77-4.08,11C472.36,60.16,464,79,456,98c-1.25,2.94-2.89,3.49-5.84,4-9.8,1.65-14.74-2.16-18.23-11.52-7-18.66-15.31-36.81-23.05-55.19C408.29,33.92,408,32.47,407.39,30.6Z"></path><path class="cls-2" d="M1156.61,31.14c5.15,0,9.76.11,14.36,0,2.55-.08,3.69.84,3.64,3.42-.08,3.46,0,6.92,0,11h-18V69.32c0,2.67,0,5.33,0,8,.13,8.63,5.23,12.31,13.5,9.74,1.56-.48,3.12-1,4.54-1.45.33.26.51.33.58.46,6.32,11.5,5,14.1-7.91,16.15-17.06,2.71-28.22-6.58-28.54-23.91-.19-10.31-.15-20.63-.24-30.95,0-.29-.26-.58-.4-.86-3.34-.54-8.74-.1-9.58-1.84-1.72-3.59-1-8.34-1.33-13.13l11.74-.58V15.61h17.67Z"></path><path class="cls-2" d="M667.91,30.58h16.32c.13,2.75.25,5.19.4,8.47,7.1-6.3,14.77-10,24.47-9.41V45.29a6.74,6.74,0,0,1-1.67.6c-15.08.15-21.55,6-22.31,21.19-.47,9.48-.18,19-.22,28.48,0,1.82,0,3.63,0,5.84h-17Z"></path><path class="cls-2" d="M365.82,30.83h17a15.86,15.86,0,0,1,.53,2.88c0,21.32,0,42.65.09,64,0,3-.93,4.18-4,4-4.44-.19-8.9,0-13.63,0Z"></path><path class="cls-2" d="M1207.06,30.76h16.69v70.72h-16.69Z"></path><path class="cls-2" d="M1215.25,19.86c-6.31,0-10.7-4-10.77-9.84-.07-5.44,5.09-10,11.36-10,5.92,0,10.77,4.51,10.74,10.06C1226.55,16,1222,19.91,1215.25,19.86Z"></path><path class="cls-2" d="M374.13,20c-5.95-.07-10.48-4.21-10.54-9.63s4.87-10,10.89-9.92c6.42,0,11.19,4.47,11.06,10.27C385.41,16.08,380.56,20,374.13,20Z"></path></g></g></svg></svg></g></g></svg>